<?xml version="1.0" encoding="iso-8859-1"?>
<!-- Uploaded to: SVG Repo, www.svgrepo.com, Generator: SVG Repo Mixer Tools -->
<svg fill="#220126" height="800px" width="800px" version="1.1" id="Layer_1" xmlns="http://www.w3.org/2000/svg" xmlns:xlink="http://www.w3.org/1999/xlink" 
	 viewBox="0 0 512.001 512.001" xml:space="preserve">
<g>
	<g>
		<g>
			<path d="M50.753,134.196c5.888,1.579,11.853,2.355,17.783,2.355c11.827,0,23.501-3.098,34.014-9.173
				c11.375-6.562,20.565-16.239,26.573-27.964c2.15-4.198,0.495-9.335-3.703-11.486c-4.19-2.142-9.335-0.495-11.486,3.703
				c-4.506,8.798-11.392,16.051-19.917,20.966c-11.836,6.844-25.634,8.661-38.844,5.111c-13.21-3.541-24.252-12.006-31.087-23.851
				C9.972,69.411,18.378,38.034,42.817,23.92c3.004-1.732,6.153-3.14,9.404-4.224c-8.969,17.63-8.909,39.202,1.425,57.096
				c5.41,9.378,13.252,17.101,22.682,22.34c4.13,2.295,9.318,0.802,11.605-3.311c2.295-4.122,0.802-9.318-3.311-11.605
				c-6.733-3.738-12.322-9.25-16.196-15.957c-10.095-17.476-6.477-39.868,8.602-53.239c2.594-2.295,3.533-5.939,2.389-9.207
				c-1.152-3.277-4.164-5.521-7.629-5.692C58.621-0.545,45.65,2.578,34.284,9.14C1.695,27.965-9.509,69.795,9.307,102.393
				C18.42,118.188,33.14,129.478,50.753,134.196z"/>
			<path d="M145.217,34.135h8.533v8.533c0,4.71,3.823,8.533,8.533,8.533c4.71,0,8.533-3.823,8.533-8.533v-8.533h8.533
				c4.71,0,8.533-3.823,8.533-8.533c0-4.71-3.823-8.533-8.533-8.533h-8.533V8.535c0-4.71-3.823-8.533-8.533-8.533
				c-4.71,0-8.533,3.823-8.533,8.533v8.533h-8.533c-4.71,0-8.533,3.823-8.533,8.533C136.684,30.312,140.507,34.135,145.217,34.135z"
				/>
			<path d="M239.084,68.268c0,4.71,3.823,8.533,8.533,8.533s8.533-3.823,8.533-8.533c4.71,0,8.533-3.823,8.533-8.533
				s-3.823-8.533-8.533-8.533c0-4.71-3.823-8.533-8.533-8.533s-8.533,3.823-8.533,8.533c-4.71,0-8.533,3.823-8.533,8.533
				S234.373,68.268,239.084,68.268z"/>
			<path d="M353.542,93.68l-101.871,62.507c-4.019,2.466-5.274,7.723-2.807,11.733c1.604,2.628,4.412,4.07,7.279,4.07
				c1.519,0,3.063-0.401,4.454-1.254l101.862-62.507c4.019-2.466,5.282-7.723,2.816-11.733
				C362.809,92.477,357.561,91.214,353.542,93.68z"/>
			<path d="M324.417,381.731V277.514c0-4.71-3.823-8.533-8.533-8.533c-4.71,0-8.533,3.823-8.533,8.533v106.487
				c0,1.485,0.384,2.944,1.126,4.233L376.744,507.7c1.57,2.756,4.454,4.301,7.415,4.301c1.434,0,2.893-0.358,4.224-1.126
				c4.096-2.338,5.513-7.552,3.174-11.639L324.417,381.731z"/>
			<path d="M222.384,174.218l-21.453,14.029c-3.951,2.577-5.052,7.868-2.475,11.81c1.638,2.509,4.369,3.866,7.151,3.866
				c1.604,0,3.226-0.452,4.668-1.391l21.453-14.037c3.951-2.577,5.052-7.868,2.475-11.81
				C231.617,172.733,226.344,171.632,222.384,174.218z"/>
			<path d="M290.284,294.93c0-4.71-3.823-8.533-8.533-8.533s-8.533,3.823-8.533,8.533v86.801l-67.14,117.504
				c-2.338,4.087-0.922,9.301,3.174,11.639c1.331,0.768,2.79,1.126,4.224,1.126c2.961,0,5.845-1.545,7.415-4.301l68.267-119.467
				c0.742-1.289,1.126-2.748,1.126-4.233V294.93z"/>
			<path d="M509.539,141.561l-76.8-133.026c-2.278-3.942-5.956-6.767-10.368-7.953c-4.395-1.169-9.003-0.563-12.945,1.707
				l-29.551,17.067c-3.951,2.278-6.775,5.956-7.962,10.359c-1.178,4.412-0.572,9.011,1.707,12.954l55.467,96.077
				c2.355,4.07,7.569,5.478,11.657,3.123c4.079-2.355,5.478-7.578,3.123-11.657L388.4,34.135l29.559-17.067l76.8,133.026
				l-29.56,17.067l-4.267-7.39c-0.265-0.452-0.666-0.742-0.99-1.126c-0.393-0.461-0.725-0.99-1.195-1.348
				c-0.393-0.307-0.862-0.452-1.306-0.674c-0.529-0.282-1.024-0.631-1.604-0.785c-0.521-0.154-1.067-0.111-1.613-0.154
				c-0.546-0.051-1.075-0.179-1.63-0.119c-0.589,0.068-1.143,0.35-1.724,0.538c-0.478,0.162-0.964,0.196-1.425,0.444
				l-314.82,171.913c-1.971,1.143-4.267,1.442-6.477,0.853c-2.202-0.597-4.036-2.005-5.171-3.977l-8.533-14.771v-0.008
				c0-0.009-0.009-0.009-0.009-0.009l-34.133-59.119c-1.135-1.971-1.442-4.275-0.853-6.468c0.589-2.202,2.005-4.045,4.164-5.299
				L360.172,70.137c4.028-2.466,5.282-7.723,2.825-11.733c-2.466-4.019-7.723-5.282-11.733-2.816L74.894,225
				c-5.922,3.413-10.155,8.934-11.93,15.539c-1.766,6.605-0.853,13.508,2.56,19.422l4.267,7.398l-49.374,28.501l-4.25-7.339
				c-2.364-4.079-7.569-5.495-11.656-3.132c-4.079,2.364-5.478,7.578-3.123,11.665l34.108,59.068v0.009l8.559,14.822
				c1.587,2.739,4.454,4.267,7.398,4.267c1.451,0,2.918-0.367,4.258-1.143c4.087-2.355,5.478-7.569,3.123-11.656l-4.292-7.433
				l49.382-28.51l4.267,7.39c3.422,5.922,8.934,10.155,15.539,11.921c2.227,0.597,4.48,0.888,6.716,0.888
				c4.403,0,8.73-1.135,12.535-3.345l307.337-167.817l0.102,0.179c3.166,5.47,8.909,8.525,14.814,8.525
				c2.893,0,5.82-0.734,8.499-2.278l29.568-17.067C511.442,160.155,514.25,149.693,509.539,141.561z M46.009,340.2l-17.058-29.551
				l49.374-28.51l17.067,29.551L46.009,340.2z"/>
			<path d="M298.817,409.601c-4.71,0-8.533,3.823-8.533,8.533v68.267c0,4.71,3.823,8.533,8.533,8.533
				c4.71,0,8.533-3.823,8.533-8.533v-68.267C307.351,413.424,303.528,409.601,298.817,409.601z"/>
		</g>
	</g>
</g>
</svg> 